<svg width="26" height="16" viewBox="0 0 26 16" fill="none" xmlns="http://www.w3.org/2000/svg">
<path fill-rule="evenodd" clip-rule="evenodd" d="M26 8C26 8 20.1797 16 13 16C5.82032 16 0 8 0 8C0 8 5.82032 0 13 0C20.1797 0 26 8 26 8ZM18.9333 8C18.9333 11.2146 16.2769 13.8205 13 13.8205C9.72307 13.8205 7.06669 11.2146 7.06669 8C7.06669 4.78543 9.72307 2.17946 13 2.17946C16.2769 2.17946 18.9333 4.78543 18.9333 8Z" fill="white"/>
<path fill-rule="evenodd" clip-rule="evenodd" d="M13 12C12.992 9.79358 11.2042 8.00741 9 8.00741C11.2091 8.00741 13 6.21321 13 4C13.008 6.20642 14.7958 7.99259 17 7.99259C14.7908 7.99259 13 9.78679 13 12Z" fill="white"/>
</svg>
